<svg width="315" height="347" viewBox="0 0 315 347" fill="none" xmlns="http://www.w3.org/2000/svg">
<path d="M222.034 1.50915C199.778 7.54138 186.569 30.3182 192.289 52.8871C196.449 69.0077 207.162 79.3041 224.322 83.6722C241.691 88.1444 262.18 78.264 270.292 61.5194C282.461 36.8705 269.148 8.47741 242.315 1.30114C235.659 -0.466922 229.315 -0.466922 222.034 1.50915Z" fill="black"/>
<path d="M104.718 54.8632C72.0609 62.9755 41.2757 95.6327 25.9871 138.482C24.4271 142.954 23.283 146.803 23.595 147.011C23.8031 147.219 26.5072 144.098 29.6273 140.146C46.5799 118.306 68.9407 103.225 89.4295 99.6888C114.91 95.2167 140.599 113.833 145.176 140.042C147.36 152.523 141.431 168.955 127.911 188.092C118.239 201.717 102.534 221.581 89.8455 236.454C66.2366 264.015 14.3387 327.457 0.0901602 346.074C-2.50994 349.61 51.7801 318.617 78.5091 301.456C86.2054 296.464 108.774 281.696 128.535 268.487C174.817 237.702 193.641 227.926 211.114 225.326C218.186 224.39 220.266 224.39 225.155 225.846C237.323 229.382 240.235 237.702 235.243 253.823C232.123 263.807 225.155 275.663 212.674 292.72C207.786 299.376 203.106 305.825 202.274 306.969C200.09 310.089 213.818 302.496 230.355 291.576C276.637 260.999 297.333 223.973 284.541 194.852C274.973 173.22 235.243 165.627 189.793 176.756C175.025 180.292 162.648 184.764 153.496 189.756C149.752 191.836 146.84 193.292 147.152 192.98C147.464 192.668 152.456 188.508 158.28 183.724C176.689 168.539 190.313 162.091 220.266 154.187C229.939 151.587 241.483 148.155 245.955 146.387C260.204 140.978 274.973 130.058 282.877 119.242C289.652 110.491 295.727 102.958 300.973 93.1366C307.63 80.4481 312.206 69.1117 314.078 60.1674L314.806 56.5272L311.79 60.9994C301.806 75.5599 287.765 88.9764 275.077 95.8407C264.052 101.769 255.316 104.057 243.355 104.057C225.675 104.057 213.194 98.8568 187.193 80.5521C178.665 74.5199 167.848 67.5516 163.272 64.9515C143.824 54.0311 122.815 50.495 104.718 54.8632Z" fill="black"/>
</svg>
